<?xml version="1.0" standalone="no"?><!DOCTYPE svg PUBLIC "-//W3C//DTD SVG 1.1//EN" "http://www.w3.org/Graphics/SVG/1.1/DTD/svg11.dtd"><svg t="1711424757437" class="icon" viewBox="0 0 1024 1024" version="1.1" xmlns="http://www.w3.org/2000/svg" p-id="13216" xmlns:xlink="http://www.w3.org/1999/xlink" width="200" height="200"><path d="M926.72 198.8608a508.0064 508.0064 0 0 0-44.5952-54.0672 43.4176 43.4176 0 1 0-61.44 56.32A430.6432 430.6432 0 0 1 866.1504 737.28l0.5632 0.5632a427.0592 427.0592 0 0 1-45.5168 56.8832 43.4176 43.4176 0 1 0 61.44 56.32A513.8944 513.8944 0 0 0 926.72 198.8608zM426.6496 71.2192L213.9648 290.0992H143.7184l-0.3584-0.4096H84.2752C28.8256 289.6896 1.4848 319.5904 1.4848 372.8896V650.24c0 53.3504 27.3408 83.2 82.7904 83.2H143.36l0.3584-0.3584h70.2464L426.6496 952.32c61.44 57.6 154.0608 32.2048 154.0608-63.3856V134.5536c0-95.5904-92.8256-120.9344-154.0608-63.3344z" p-id="13217" fill="#ffffff"></path><path d="M729.1904 300.032c-38.9632-46.08-69.9392-20.1728-69.9392-20.1728-39.6288 34.6112 5.12 73.5232 5.12 73.5232 64.8704 61.44 68.1984 158.72 68.1984 158.72s-3.328 97.28-68.1984 158.72c0 0-44.6976 38.912-5.12 73.5232 0 0 30.976 25.9584 69.9392-20.1728s84.3264-107.52 86.2208-211.968c-1.8944-104.704-47.4112-166.0416-86.2208-212.1728z" p-id="13218" fill="#ffffff"></path></svg>