<?xml version="1.0" standalone="no"?><!DOCTYPE svg PUBLIC "-//W3C//DTD SVG 1.1//EN" "http://www.w3.org/Graphics/SVG/1.1/DTD/svg11.dtd"><svg t="1711424376158" class="icon" viewBox="0 0 1024 1024" version="1.1" xmlns="http://www.w3.org/2000/svg" p-id="7317" xmlns:xlink="http://www.w3.org/1999/xlink" width="200" height="200"><path d="M871.4752 945.7152L81.92 156.16a46.3872 46.3872 0 1 1 65.8944-65.4848l789.5552 789.5552a46.3872 46.3872 0 0 1 0 65.6896 46.8992 46.8992 0 0 1-65.8944 0zM669.6448 352.8704a247.4496 247.4496 0 0 1 66.56 170.0352 252.3648 252.3648 0 0 1-11.0592 73.5744l64 64a330.9056 330.9056 0 0 0-55.9104-360.0896 41.3696 41.3696 0 0 0-21.5552-23.296 43.1104 43.1104 0 0 0-63.3856 44.9024 44.8512 44.8512 0 0 0 21.3504 30.8736z" p-id="7318" fill="#515151"></path><path d="M820.48 201.1648A430.6432 430.6432 0 0 1 866.1504 737.28l59.6992 59.7504a513.8944 513.8944 0 0 0-43.9296-652.1856 43.4176 43.4176 0 1 0-61.44 56.32z m-239.7696 250.4704v-317.44c0-96.6656-94.3104-119.7056-154.0608-63.1808L314.88 185.8048zM143.36 289.6896H84.2752C28.8256 289.6896 1.4848 319.5904 1.4848 372.8896V650.24c0 52.2752 28.16 83.2 82.7904 83.2h129.6896L426.6496 952.32c61.44 57.6 154.0608 32.2048 154.0608-63.3856V727.04z" p-id="7319" fill="#515151"></path></svg>