<?xml version="1.0" standalone="no"?><!DOCTYPE svg PUBLIC "-//W3C//DTD SVG 1.1//EN" "http://www.w3.org/Graphics/SVG/1.1/DTD/svg11.dtd"><svg t="1714810574320" class="icon" viewBox="0 0 1024 1024" version="1.1" xmlns="http://www.w3.org/2000/svg" p-id="4197" xmlns:xlink="http://www.w3.org/1999/xlink" width="200" height="200"><path d="M720.39846964 861.52237439H301.9859466a45.53223983 45.53223983 0 0 0-39.41314235 22.7720378 45.5440756 45.5440756 0 0 0 0 45.42571782 45.39021049 45.39021049 0 0 0 39.41314235 22.7720378h418.41252304a45.53223983 45.53223983 0 0 0 39.41314235-22.7720378 45.5440756 45.5440756 0 0 0 0-45.42571782 45.39021049 45.39021049 0 0 0-39.41314235-22.7720378zM940.92861224 61.11010079H81.44988612c-43.92257395 0-79.63703553 35.60202168-79.63703553 79.63703552v568.44285111c0 43.92257395 35.60202168 79.63703553 79.63703553 79.63703552H940.92861224c43.92257395 0 79.63703553-35.60202168 79.63703552-79.63703552V140.74713631c0.00591789-44.04093174-35.59610379-79.63703553-79.63703552-79.63703552zM475.03094591 262.44852857c47.21883826 0 85.44840276 38.2828255 85.44840276 85.44840276 0 5.01245219-4.08334357 9.08987787-9.08987788 9.08987787-5.01245219 0-9.08987787-4.08334357-9.08987787-9.08987787a67.34557957 67.34557957 0 0 0-33.27037331-59.4096901 67.22722179 67.22722179 0 0 0-68.09123363 0A67.35741534 67.35741534 0 0 0 407.66761267 347.89693133c0 4.95919118-4.03008257 9.04253476-9.04253476 9.04253476s-9.04253476-4.03008257-9.04253476-9.04253476c-0.00591789-47.21883826 38.27690761-85.44840276 85.44840276-85.44840276z m184.17654898 382.20687667a81.23486563 81.23486563 0 0 1-37.97509527 29.96227324 170.64233628 170.64233628 0 0 1-64.5760074 10.43323872 127.87375074 127.87375074 0 0 1-90.46085495-25.83158654 47.10048048 47.10048048 0 0 1-7.95364314-6.30255204l-102.24337243-101.56873306a42.99938323 42.99938323 0 0 1-12.34471695-36.73233852 54.03032878 54.03032878 0 0 1 15.03143867-30.27592136 46.40808744 46.40808744 0 0 1 31.30563409-12.55184308 44.88127201 44.88127201 0 0 1 33.27037331 12.50449997l6.77006529 6.7700653V371.66317452c-0.15386512-25.57119941 20.15041287-46.55011677 45.66835128-47.37270338a42.59696676 42.59696676 0 0 1 32.03353447 14.67044743 49.38478573 49.38478573 0 0 1 12.45123896 32.75551696v24.6953518c2.68672172-0.82850449 5.42670444-1.24275674 8.21403027-1.24275674a43.8456414 43.8456414 0 0 1 37.92183426 21.64763885 45.72161228 45.72161228 0 0 1 15.13796068-2.5861176 43.8989024 43.8989024 0 0 1 37.81531225 21.59437784 42.04660306 42.04660306 0 0 1 14.25619518-2.42633458h0.92910862a43.21242725 43.21242725 0 0 1 31.67254322 13.48686958 45.69794072 45.69794072 0 0 1 12.34471695 31.98027346v72.74269455a162.4401418 162.4401418 0 0 1-19.26864736 93.04697255z" p-id="4198" fill="#ffffff"></path></svg>