<?xml version="1.0" standalone="no"?><!DOCTYPE svg PUBLIC "-//W3C//DTD SVG 1.1//EN" "http://www.w3.org/Graphics/SVG/1.1/DTD/svg11.dtd"><svg t="1711431758152" class="icon" viewBox="0 0 1024 1024" version="1.1" xmlns="http://www.w3.org/2000/svg" p-id="5071" xmlns:xlink="http://www.w3.org/1999/xlink" width="200" height="200"><path d="M975.68 718.34666667a40.32 40.32 0 0 0-40.32 40.32v170.88000005h-171.36a40.32 40.32 0 1 0 0 81.11999995h170.88000005A81.11999995 81.11999995 0 0 0 1016 929.54666672v-170.88000005a40.32 40.32 0 0 0-40.32-40.32zM934.88000005 2.66666667h-170.88000005a40.32 40.32 0 1 0 0 81.11999995h170.88000005v170.88000005a40.32 40.32 0 1 0 81.11999995 0V83.78666662A81.11999995 81.11999995 0 0 0 934.88000005 2.66666667zM260 929.54666672H89.11999995v-170.88000005a40.32 40.32 0 1 0-81.11999995 0v170.88000005A81.11999995 81.11999995 0 0 0 89.11999995 1010.66666667h170.88000005a40.32 40.32 0 1 0 0-81.11999995zM48.32 294.98666667a40.32 40.32 0 0 0 40.32-40.32V83.78666662h171.36a40.32 40.32 0 1 0 0-81.11999995H89.11999995A81.11999995 81.11999995 0 0 0 8 83.78666662v170.88000005a40.32 40.32 0 0 0 40.32 40.32z" fill="#ffffff" p-id="5072"></path><path d="M223.99999958 218.66666625m81.11999995 0l413.76000094 0q81.11999995 0 81.11999995 81.11999995l0 413.76000094q0 81.11999995-81.11999995 81.11999995l-413.76000094 0q-81.11999995 0-81.11999995-81.11999995l0-413.76000094q0-81.11999995 81.11999995-81.11999995Z" fill="#ffffff" p-id="5073"></path></svg>