<?xml version="1.0" standalone="no"?><!DOCTYPE svg PUBLIC "-//W3C//DTD SVG 1.1//EN" "http://www.w3.org/Graphics/SVG/1.1/DTD/svg11.dtd"><svg t="1711431594512" class="icon" viewBox="0 0 1024 1024" version="1.1" xmlns="http://www.w3.org/2000/svg" p-id="4872" xmlns:xlink="http://www.w3.org/1999/xlink" width="200" height="200"><path d="M757.80595982 241.28432379c-147.67933973-135.44410031-377.21243112-125.53355639-512.65653143 22.14578335-106.93599247 116.6018316-126.02296595 289.11870732-47.10567174 426.27574115 100.32896318 173.3733425 322.03150136 232.83660602 495.52719623 132.62999524 81.73139928-47.22802413 141.92877718-124.43238483 167.62277998-215.34021368 10.88936308-38.54100416 51.02094836-60.93149227 89.56195251-50.04212921 38.54100416 10.88936308 60.93149227 51.02094836 50.0421292 89.56195253C924.44992062 916.30248222 643.89588088 1073.15825149 373.98649942 996.81035757 104.19947035 920.46246364-52.65629892 639.90842389 23.69159501 369.99904242S380.5935287-56.64375592 650.50291015 19.70413801c78.55023703 22.26813572 150.61579718 63.01148297 209.95670835 119.0488795l97.51485811-97.51485812c14.19287772-14.19287772 37.07277543-14.19287772 51.26565314-0.12235238 6.85173406 6.85173406 10.64465829 16.02816363 10.64465829 25.69400276V378.19665283c0 20.06579264-16.27286842 36.21630865-36.21630866 36.21630867H672.15928392c-20.06579264 0-36.21630865-16.27286842-36.21630866-36.33866106 0-9.54348675 3.79292421-18.7199163 10.52230589-25.57165037l111.34067867-111.21832628z" p-id="4873" fill="#ffffff"></path></svg>